<?xml version="1.0" encoding="utf-8"?>
<!-- Generator: Adobe Illustrator 19.0.0, SVG Export Plug-In . SVG Version: 6.00 Build 0)  -->
<svg version="1.1" xmlns="http://www.w3.org/2000/svg" xmlns:xlink="http://www.w3.org/1999/xlink" x="0px" y="0px"
	 viewBox="0 0 1078.4 280.5" style="enable-background:new 0 0 1078.4 280.5;" xml:space="preserve">
<style type="text/css">
	.st0{fill:#FFFFFF;}
	.st1{fill-rule:evenodd;clip-rule:evenodd;fill:#FFFFFF;}
</style>
<g id="test_1">
	<g>
		<path class="st0" d="M371.2,125.4h-21.9l-3.8,8.9c-0.9,2.2-1.4,3.8-1.4,4.9c0,0.9,0.4,1.6,1.2,2.3c0.8,0.7,2.6,1.1,5.3,1.3v1.5
			h-17.8v-1.5c2.4-0.4,3.9-1,4.6-1.6c1.4-1.3,3-4,4.7-8.1L362,86.4h1.5l19.7,47c1.6,3.8,3,6.2,4.3,7.4c1.3,1.1,3.1,1.8,5.4,1.9v1.5
			h-22.3v-1.5c2.3-0.1,3.8-0.5,4.6-1.1c0.8-0.6,1.2-1.4,1.2-2.3c0-1.2-0.6-3.2-1.7-5.8L371.2,125.4z M370,122.3l-9.6-22.9l-9.8,22.9
			H370z"/>
		<path class="st0" d="M397.2,144.3v-1.5h2.1c2.4,0,4.1-0.8,5.1-2.3c0.6-0.9,0.9-3,0.9-6.2V97.7c0-3.5-0.4-5.7-1.2-6.6
			c-1.1-1.2-2.7-1.8-4.8-1.8h-2.1v-1.5h23c8.5,0,14.9,1,19.3,2.9c4.4,1.9,8,5.1,10.6,9.6c2.7,4.5,4,9.6,4,15.5
			c0,7.9-2.4,14.4-7.2,19.7c-5.4,5.9-13.5,8.8-24.5,8.8H397.2z M413.4,140.2c3.5,0.8,6.5,1.2,8.9,1.2c6.5,0,11.8-2.3,16.1-6.8
			c4.3-4.5,6.4-10.7,6.4-18.4c0-7.8-2.1-14-6.4-18.5c-4.3-4.5-9.7-6.8-16.4-6.8c-2.5,0-5.4,0.4-8.5,1.2V140.2z"/>
		<path class="st0" d="M520.1,87.7v1.5c-2,0.4-3.5,1-4.5,1.9c-1.5,1.4-2.8,3.4-3.9,6.3l-19.7,48.1h-1.5l-21.2-48.8
			c-1.1-2.5-1.8-4-2.3-4.6c-0.7-0.9-1.6-1.5-2.6-2c-1-0.5-2.4-0.8-4.1-0.9v-1.5h23.1v1.5c-2.6,0.3-4.3,0.7-5.1,1.3
			c-0.8,0.6-1.2,1.5-1.2,2.5c0,1.4,0.6,3.6,1.9,6.5l14.4,33.2l13.3-32.7c1.3-3.2,2-5.5,2-6.7c0-0.8-0.4-1.6-1.2-2.3
			c-0.8-0.7-2.2-1.3-4.1-1.6c-0.1,0-0.4-0.1-0.7-0.1v-1.5H520.1z"/>
		<path class="st0" d="M540.9,90.8v22.4h12.4c3.2,0,5.4-0.5,6.5-1.5c1.4-1.3,2.3-3.5,2.4-6.8h1.5v19.7h-1.5
			c-0.4-2.8-0.8-4.5-1.2-5.3c-0.5-1-1.3-1.7-2.5-2.3c-1.1-0.6-2.9-0.8-5.3-0.8h-12.4v18.6c0,2.5,0.1,4,0.3,4.6
			c0.2,0.5,0.6,1,1.2,1.3c0.6,0.3,1.6,0.5,3.2,0.5h9.6c3.2,0,5.5-0.2,7-0.7c1.4-0.4,2.8-1.3,4.2-2.6c1.7-1.7,3.5-4.3,5.3-7.8h1.7
			l-4.9,14.2h-43.6v-1.5h2c1.3,0,2.6-0.3,3.8-1c0.9-0.4,1.5-1.1,1.8-2c0.3-0.9,0.5-2.7,0.5-5.5V97.6c0-3.6-0.4-5.8-1.1-6.6
			c-1-1.1-2.7-1.7-5-1.7h-2v-1.5h43.6l0.6,12.4h-1.6c-0.6-3-1.2-5-1.9-6.1c-0.7-1.1-1.8-2-3.1-2.5c-1.1-0.4-3.1-0.6-5.9-0.6H540.9z"
			/>
		<path class="st0" d="M576.1,87.7h15.3l34.6,42.4V97.5c0-3.5-0.4-5.6-1.2-6.5c-1-1.2-2.7-1.8-4.9-1.8h-2v-1.5h19.7v1.5h-2
			c-2.4,0-4.1,0.7-5.1,2.2c-0.6,0.9-0.9,2.9-0.9,6.1v47.7h-1.5l-37.3-45.5v34.8c0,3.5,0.4,5.6,1.1,6.5c1.1,1.2,2.7,1.8,4.9,1.8h2
			v1.5h-19.7v-1.5h2c2.4,0,4.1-0.7,5.1-2.2c0.6-0.9,0.9-2.9,0.9-6.1V95.2c-1.6-1.9-2.9-3.2-3.7-3.8c-0.8-0.6-2.1-1.2-3.7-1.7
			c-0.8-0.3-2-0.4-3.7-0.4V87.7z"/>
		<path class="st0" d="M690.3,87.7l0.6,13.3h-1.6c-0.3-2.3-0.7-4-1.3-5c-0.9-1.6-2-2.8-3.4-3.6c-1.4-0.8-3.3-1.1-5.7-1.1h-8v43.2
			c0,3.5,0.4,5.6,1.1,6.5c1.1,1.2,2.7,1.8,4.9,1.8h2v1.5h-24v-1.5h2c2.4,0,4.1-0.7,5.1-2.2c0.6-0.9,0.9-2.9,0.9-6.1V91.3h-6.8
			c-2.6,0-4.5,0.2-5.6,0.6c-1.4,0.5-2.7,1.5-3.7,3c-1,1.5-1.6,3.5-1.8,6.1h-1.6l0.7-13.3H690.3z"/>
		<path class="st0" d="M769.2,86.4l1.5,17.9h-1.5c-1.5-4.4-3.4-7.8-5.7-10.1c-3.4-3.3-7.7-4.9-13-4.9c-7.2,0-12.7,2.9-16.4,8.5
			c-3.1,4.8-4.7,10.5-4.7,17.2c0,5.4,1,10.3,3.1,14.8c2.1,4.4,4.8,7.7,8.2,9.8s6.8,3.1,10.4,3.1c2.1,0,4.1-0.3,6-0.8
			c1.9-0.5,3.8-1.3,5.6-2.3v-16.3c0-2.8-0.2-4.7-0.6-5.6c-0.4-0.9-1.1-1.5-2-2c-0.9-0.5-2.5-0.7-4.8-0.7v-1.6h21.9v1.6h-1
			c-2.2,0-3.7,0.7-4.5,2.2c-0.6,1-0.8,3.1-0.8,6.1v17.3c-3.2,1.7-6.4,3-9.5,3.8c-3.1,0.8-6.6,1.2-10.4,1.2
			c-10.9,0-19.2-3.5-24.9-10.5c-4.3-5.3-6.4-11.3-6.4-18.2c0-5,1.2-9.7,3.6-14.3c2.8-5.4,6.7-9.6,11.7-12.5c4.1-2.4,9-3.6,14.7-3.6
			c2.1,0,3.9,0.2,5.6,0.5c1.7,0.3,4.1,1.1,7.2,2.2c1.6,0.6,2.6,0.9,3.1,0.9s1-0.2,1.4-0.7c0.4-0.5,0.6-1.4,0.7-2.9H769.2z"/>
		<path class="st0" d="M829.4,128.6l1.4,0.3l-4.8,15.3h-43.8v-1.5h2.1c2.4,0,4.1-0.8,5.1-2.3c0.6-0.9,0.9-2.9,0.9-6.2V97.7
			c0-3.5-0.4-5.7-1.2-6.6c-1.1-1.2-2.7-1.8-4.8-1.8h-2.1v-1.5h25.6v1.5c-3,0-5.1,0.3-6.3,0.8c-1.2,0.6-2,1.3-2.5,2.2
			c-0.4,0.9-0.7,3-0.7,6.4v35.5c0,2.3,0.2,3.9,0.7,4.8c0.3,0.6,0.8,1,1.5,1.3c0.7,0.3,2.9,0.4,6.5,0.4h4.1c4.3,0,7.4-0.3,9.1-1
			c1.8-0.6,3.4-1.8,4.8-3.4C826.5,134.7,827.9,132.1,829.4,128.6z"/>
		<path class="st0" d="M865.8,86.4c7.3,0,13.7,2.8,19.1,8.4c5.4,5.6,8.1,12.5,8.1,20.9c0,8.6-2.7,15.7-8.1,21.4
			c-5.4,5.7-12,8.5-19.7,8.5c-7.8,0-14.3-2.8-19.6-8.3s-7.9-12.7-7.9-21.5c0-9,3.1-16.3,9.2-22C852.1,88.9,858.4,86.4,865.8,86.4z
			 M865,89.5c-5.1,0-9.1,1.9-12.2,5.6c-3.8,4.7-5.7,11.5-5.7,20.5c0,9.2,2,16.3,5.9,21.3c3,3.8,7,5.7,12,5.7c5.3,0,9.7-2.1,13.2-6.2
			c3.5-4.1,5.2-10.7,5.2-19.6c0-9.7-1.9-16.9-5.7-21.6C874.6,91.4,870.4,89.5,865,89.5z"/>
		<path class="st0" d="M937.7,115.4c3.9,0.8,6.9,2.2,8.8,4c2.7,2.6,4,5.7,4,9.4c0,2.8-0.9,5.5-2.7,8.1c-1.8,2.6-4.2,4.4-7.3,5.6
			s-7.8,1.8-14.2,1.8h-26.7v-1.5h2.1c2.4,0,4.1-0.8,5.1-2.3c0.6-1,1-3,1-6.2V97.7c0-3.5-0.4-5.7-1.2-6.6c-1.1-1.2-2.7-1.8-4.8-1.8
			h-2.1v-1.5h24.4c4.6,0,8.2,0.3,11,1c4.2,1,7.4,2.8,9.6,5.3s3.3,5.5,3.3,8.8c0,2.8-0.9,5.4-2.6,7.6
			C943.6,112.7,941,114.3,937.7,115.4z M915.8,113.2c1,0.2,2.2,0.3,3.5,0.4c1.3,0.1,2.8,0.1,4.4,0.1c4.1,0,7.1-0.4,9.2-1.3
			c2-0.9,3.6-2.2,4.7-4c1.1-1.8,1.6-3.8,1.6-5.9c0-3.3-1.3-6.1-4-8.5c-2.7-2.3-6.6-3.5-11.8-3.5c-2.8,0-5.3,0.3-7.5,0.9V113.2z
			 M915.8,140.2c3.2,0.8,6.4,1.1,9.6,1.1c5,0,8.9-1.1,11.5-3.4c2.6-2.3,4-5.1,4-8.4c0-2.2-0.6-4.3-1.8-6.3c-1.2-2-3.1-3.6-5.8-4.8
			c-2.7-1.2-6-1.8-10-1.8c-1.7,0-3.2,0-4.4,0.1c-1.2,0.1-2.2,0.2-3,0.3V140.2z"/>
		<path class="st0" d="M996.2,125.4h-21.9l-3.8,8.9c-0.9,2.2-1.4,3.8-1.4,4.9c0,0.9,0.4,1.6,1.2,2.3c0.8,0.7,2.6,1.1,5.3,1.3v1.5
			h-17.8v-1.5c2.4-0.4,3.9-1,4.6-1.6c1.4-1.3,3-4,4.7-8.1L987,86.4h1.5l19.7,47c1.6,3.8,3,6.2,4.3,7.4c1.3,1.1,3.1,1.8,5.4,1.9v1.5
			h-22.3v-1.5c2.3-0.1,3.8-0.5,4.6-1.1c0.8-0.6,1.2-1.4,1.2-2.3c0-1.2-0.6-3.2-1.7-5.8L996.2,125.4z M995.1,122.3l-9.6-22.9
			l-9.8,22.9H995.1z"/>
		<path class="st0" d="M1069.8,128.6l1.4,0.3l-4.8,15.3h-43.8v-1.5h2.1c2.4,0,4.1-0.8,5.1-2.3c0.6-0.9,0.9-2.9,0.9-6.2V97.7
			c0-3.5-0.4-5.7-1.2-6.6c-1.1-1.2-2.7-1.8-4.8-1.8h-2.1v-1.5h25.6v1.5c-3,0-5.1,0.3-6.3,0.8c-1.2,0.6-2,1.3-2.5,2.2
			c-0.4,0.9-0.7,3-0.7,6.4v35.5c0,2.3,0.2,3.9,0.7,4.8c0.3,0.6,0.8,1,1.5,1.3c0.7,0.3,2.9,0.4,6.5,0.4h4.1c4.3,0,7.4-0.3,9.1-1
			c1.8-0.6,3.4-1.8,4.8-3.4C1066.9,134.7,1068.3,132.1,1069.8,128.6z"/>
	</g>
	<g>
		<path class="st0" d="M486.2,190.8v15.1H485c-0.4-2.9-1.1-5.2-2.1-6.9c-1-1.7-2.4-3.1-4.3-4.1c-1.8-1-3.7-1.5-5.7-1.5
			c-2.2,0-4.1,0.7-5.5,2c-1.5,1.4-2.2,2.9-2.2,4.6c0,1.3,0.5,2.5,1.4,3.6c1.3,1.6,4.5,3.7,9.5,6.4c4.1,2.2,6.8,3.9,8.3,5
			c1.5,1.2,2.6,2.5,3.4,4.1s1.2,3.2,1.2,5c0,3.3-1.3,6.1-3.8,8.5c-2.6,2.4-5.9,3.6-9.9,3.6c-1.3,0-2.5-0.1-3.6-0.3
			c-0.7-0.1-2-0.5-4.1-1.2s-3.4-1-4-1c-0.5,0-1,0.2-1.3,0.5c-0.3,0.3-0.5,1-0.7,2h-1.2v-14.9h1.2c0.6,3.1,1.3,5.5,2.2,7
			c0.9,1.6,2.4,2.8,4.3,3.9c1.9,1,4.1,1.5,6.4,1.5c2.7,0,4.8-0.7,6.3-2.1c1.6-1.4,2.3-3.1,2.3-5c0-1.1-0.3-2.2-0.9-3.2
			c-0.6-1.1-1.5-2.1-2.7-3.1c-0.8-0.6-3.1-2-6.8-4.1c-3.7-2.1-6.4-3.8-8-5s-2.8-2.6-3.6-4.1c-0.8-1.5-1.2-3.1-1.2-4.9
			c0-3.1,1.2-5.8,3.6-8.1c2.4-2.3,5.5-3.4,9.2-3.4c2.3,0,4.8,0.6,7.4,1.7c1.2,0.5,2,0.8,2.5,0.8c0.6,0,1-0.2,1.4-0.5s0.6-1,0.9-2
			H486.2z"/>
		<path class="st0" d="M517.2,190.8c5.7,0,10.6,2.1,14.7,6.4s6.2,9.7,6.2,16.1c0,6.6-2.1,12.1-6.3,16.5c-4.2,4.4-9.2,6.6-15.2,6.6
			c-6,0-11-2.1-15.1-6.4s-6.1-9.8-6.1-16.5c0-6.9,2.4-12.6,7.1-16.9C506.6,192.7,511.5,190.8,517.2,190.8z M516.6,193.1
			c-3.9,0-7,1.4-9.4,4.3c-2.9,3.6-4.4,8.9-4.4,15.8c0,7.1,1.5,12.6,4.6,16.4c2.3,2.9,5.4,4.4,9.3,4.4c4.1,0,7.5-1.6,10.1-4.8
			s4-8.2,4-15.1c0-7.5-1.5-13-4.4-16.7C524,194.6,520.7,193.1,516.6,193.1z"/>
		<path class="st0" d="M578.8,223.3l1.1,0.2l-3.7,11.8h-33.7v-1.2h1.6c1.8,0,3.2-0.6,4-1.8c0.4-0.7,0.7-2.3,0.7-4.8v-28.1
			c0-2.7-0.3-4.4-0.9-5.1c-0.8-0.9-2.1-1.4-3.7-1.4h-1.6v-1.2h19.7v1.2c-2.3,0-3.9,0.2-4.9,0.6c-0.9,0.5-1.6,1-1.9,1.7
			c-0.3,0.7-0.5,2.3-0.5,4.9v27.4c0,1.8,0.2,3,0.5,3.7c0.3,0.4,0.7,0.8,1.2,1c0.5,0.2,2.2,0.3,5,0.3h3.2c3.3,0,5.7-0.2,7-0.7
			c1.3-0.5,2.6-1.4,3.7-2.6C576.6,228,577.7,226,578.8,223.3z"/>
		<path class="st0" d="M613.1,193v-1.2h15.4v1.2h-1.6c-1.7,0-3,0.7-4,2.2c-0.5,0.7-0.7,2.2-0.7,4.6v17.7c0,4.4-0.4,7.8-1.3,10.2
			c-0.9,2.4-2.6,4.5-5.1,6.2c-2.5,1.7-6,2.6-10.4,2.6c-4.8,0-8.4-0.8-10.8-2.5c-2.5-1.6-4.2-3.9-5.2-6.7c-0.7-1.9-1-5.5-1-10.7v-17
			c0-2.7-0.4-4.4-1.1-5.3c-0.7-0.8-1.9-1.3-3.6-1.3h-1.6v-1.2h18.8v1.2h-1.7c-1.8,0-3.1,0.6-3.9,1.7c-0.5,0.8-0.8,2.4-0.8,4.8v19
			c0,1.7,0.2,3.6,0.5,5.8s0.9,3.9,1.7,5.1c0.8,1.2,2,2.2,3.5,3c1.5,0.8,3.4,1.2,5.6,1.2c2.8,0,5.4-0.6,7.6-1.9s3.8-2.8,4.6-4.8
			c0.8-1.9,1.2-5.2,1.2-9.8v-17.6c0-2.7-0.3-4.4-0.9-5.1c-0.8-0.9-2.1-1.4-3.7-1.4H613.1z"/>
		<path class="st0" d="M667.8,191.8l0.5,10.2h-1.2c-0.2-1.8-0.6-3.1-1-3.9c-0.7-1.2-1.5-2.2-2.7-2.7c-1.1-0.6-2.6-0.9-4.4-0.9H653
			v33.3c0,2.7,0.3,4.3,0.9,5c0.8,0.9,2.1,1.3,3.8,1.3h1.5v1.2h-18.5v-1.2h1.5c1.8,0,3.1-0.6,3.9-1.7c0.5-0.7,0.7-2.2,0.7-4.7v-33.3
			h-5.2c-2,0-3.5,0.1-4.3,0.4c-1.1,0.4-2.1,1.2-2.9,2.3c-0.8,1.2-1.3,2.7-1.4,4.7h-1.2l0.5-10.2H667.8z"/>
		<path class="st0" d="M690.7,234.1v1.2H672v-1.2h1.5c1.8,0,3.1-0.5,3.9-1.6c0.5-0.7,0.8-2.3,0.8-4.9v-28.1c0-2.2-0.1-3.7-0.4-4.4
			c-0.2-0.5-0.7-1-1.3-1.4c-0.9-0.5-1.9-0.8-3-0.8H672v-1.2h18.7v1.2h-1.6c-1.8,0-3.1,0.5-3.9,1.6c-0.5,0.7-0.8,2.3-0.8,4.9v28.1
			c0,2.2,0.1,3.7,0.4,4.4c0.2,0.5,0.7,1,1.3,1.4c0.9,0.5,1.9,0.8,2.9,0.8H690.7z"/>
		<path class="st0" d="M716.8,190.8c5.7,0,10.6,2.1,14.7,6.4s6.2,9.7,6.2,16.1c0,6.6-2.1,12.1-6.3,16.5c-4.2,4.4-9.2,6.6-15.2,6.6
			c-6,0-11-2.1-15.1-6.4c-4.1-4.3-6.1-9.8-6.1-16.5c0-6.9,2.4-12.6,7.1-16.9C706.2,192.7,711.1,190.8,716.8,190.8z M716.2,193.1
			c-3.9,0-7,1.4-9.4,4.3c-2.9,3.6-4.4,8.9-4.4,15.8c0,7.1,1.5,12.6,4.6,16.4c2.3,2.9,5.4,4.4,9.3,4.4c4.1,0,7.5-1.6,10.1-4.8
			s4-8.2,4-15.1c0-7.5-1.5-13-4.4-16.7C723.6,194.6,720.4,193.1,716.2,193.1z"/>
		<path class="st0" d="M739.9,191.8h11.8l26.6,32.7v-25.1c0-2.7-0.3-4.3-0.9-5c-0.8-0.9-2-1.3-3.8-1.3h-1.5v-1.2h15.2v1.2h-1.5
			c-1.8,0-3.1,0.6-3.9,1.7c-0.5,0.7-0.7,2.2-0.7,4.7V236H780L751.3,201v26.8c0,2.7,0.3,4.3,0.9,5c0.8,0.9,2.1,1.3,3.8,1.3h1.5v1.2
			h-15.2v-1.2h1.5c1.9,0,3.2-0.6,4-1.7c0.5-0.7,0.7-2.2,0.7-4.7v-30.3c-1.3-1.5-2.2-2.5-2.9-2.9c-0.7-0.5-1.6-0.9-2.9-1.3
			c-0.6-0.2-1.6-0.3-2.8-0.3V191.8z"/>
		<path class="st0" d="M818.9,190.8v15.1h-1.2c-0.4-2.9-1.1-5.2-2.1-6.9c-1-1.7-2.4-3.1-4.3-4.1s-3.7-1.5-5.7-1.5
			c-2.2,0-4.1,0.7-5.5,2c-1.5,1.4-2.2,2.9-2.2,4.6c0,1.3,0.5,2.5,1.4,3.6c1.3,1.6,4.5,3.7,9.5,6.4c4.1,2.2,6.8,3.9,8.3,5
			c1.5,1.2,2.6,2.5,3.4,4.1c0.8,1.6,1.2,3.2,1.2,5c0,3.3-1.3,6.1-3.8,8.5c-2.6,2.4-5.9,3.6-9.9,3.6c-1.3,0-2.5-0.1-3.6-0.3
			c-0.7-0.1-2-0.5-4.1-1.2c-2.1-0.7-3.4-1-4-1c-0.5,0-1,0.2-1.3,0.5c-0.3,0.3-0.5,1-0.7,2h-1.2v-14.9h1.2c0.6,3.1,1.3,5.5,2.2,7
			s2.4,2.8,4.3,3.9c1.9,1,4.1,1.5,6.4,1.5c2.7,0,4.8-0.7,6.3-2.1c1.6-1.4,2.3-3.1,2.3-5c0-1.1-0.3-2.2-0.9-3.2
			c-0.6-1.1-1.5-2.1-2.7-3.1c-0.8-0.6-3.1-2-6.8-4.1c-3.7-2.1-6.4-3.8-8-5s-2.8-2.6-3.6-4.1c-0.8-1.5-1.2-3.1-1.2-4.9
			c0-3.1,1.2-5.8,3.6-8.1c2.4-2.3,5.5-3.4,9.2-3.4c2.3,0,4.8,0.6,7.4,1.7c1.2,0.5,2,0.8,2.5,0.8c0.6,0,1-0.2,1.4-0.5s0.6-1,0.9-2
			H818.9z"/>
		<path class="st0" d="M863,234.1v1.2h-18.7v-1.2h1.5c1.8,0,3.1-0.5,3.9-1.6c0.5-0.7,0.8-2.3,0.8-4.9v-28.1c0-2.2-0.1-3.7-0.4-4.4
			c-0.2-0.5-0.7-1-1.3-1.4c-0.9-0.5-1.9-0.8-3-0.8h-1.5v-1.2H863v1.2h-1.6c-1.8,0-3.1,0.5-3.9,1.6c-0.5,0.7-0.8,2.3-0.8,4.9v28.1
			c0,2.2,0.1,3.7,0.4,4.4c0.2,0.5,0.7,1,1.3,1.4c0.9,0.5,1.9,0.8,2.9,0.8H863z"/>
		<path class="st0" d="M864.2,191.8H876l26.6,32.7v-25.1c0-2.7-0.3-4.3-0.9-5c-0.8-0.9-2-1.3-3.8-1.3h-1.5v-1.2h15.2v1.2h-1.5
			c-1.8,0-3.1,0.6-3.9,1.7c-0.5,0.7-0.7,2.2-0.7,4.7V236h-1.2L875.6,201v26.8c0,2.7,0.3,4.3,0.9,5c0.8,0.9,2.1,1.3,3.8,1.3h1.5v1.2
			h-15.2v-1.2h1.5c1.9,0,3.2-0.6,4-1.7c0.5-0.7,0.7-2.2,0.7-4.7v-30.3c-1.3-1.5-2.2-2.5-2.9-2.9c-0.7-0.5-1.6-0.9-2.9-1.3
			c-0.6-0.2-1.6-0.3-2.8-0.3V191.8z"/>
		<path class="st0" d="M952.7,190.8l1,14.8h-1c-1.3-4.4-3.2-7.6-5.7-9.6c-2.5-1.9-5.4-2.9-8.9-2.9c-2.9,0-5.5,0.7-7.8,2.2
			c-2.3,1.5-4.2,3.8-5.5,7s-2,7.2-2,12c0,3.9,0.6,7.4,1.9,10.2s3.2,5.1,5.7,6.7s5.4,2.3,8.7,2.3c2.8,0,5.3-0.6,7.5-1.8
			c2.2-1.2,4.5-3.6,7.1-7.2l1,0.6c-2.2,3.9-4.7,6.7-7.6,8.5c-2.9,1.8-6.4,2.7-10.4,2.7c-7.2,0-12.8-2.7-16.8-8
			c-3-4-4.4-8.7-4.4-14.1c0-4.3,1-8.3,2.9-12c1.9-3.6,4.6-6.5,8-8.5c3.4-2,7.1-3,11.2-3c3.1,0,6.3,0.8,9.3,2.3
			c0.9,0.5,1.5,0.7,1.9,0.7c0.6,0,1.1-0.2,1.5-0.6c0.6-0.6,1-1.4,1.2-2.4H952.7z"/>
		<path class="st0" d="M965.6,229.1c1,0,1.9,0.3,2.5,1c0.7,0.7,1,1.5,1,2.5c0,1-0.3,1.8-1,2.5c-0.7,0.7-1.5,1-2.5,1
			c-1,0-1.8-0.3-2.5-1c-0.7-0.7-1-1.5-1-2.5c0-1,0.3-1.9,1-2.5C963.8,229.4,964.6,229.1,965.6,229.1z"/>
	</g>
</g>
<g id="advent_global">
	<path class="st1" d="M89.8,180.6c-1.9-5.2-3.4-10.8-4.4-16.8c-1-5.8-1.5-12-1.5-18.5c0-73.4,60.5-96.5,87.1-102.2
		C153.3,32.7,93.4,17.2,48.1,71.9C31.4,92,25.1,114.6,24.6,135.4c-9-9-12.9-17.6-15.5-22.3c-2.6,8,0.5,24.4,16.4,39.4
		c2.9,22.7,12,41.3,20.3,48.9c-0.2-0.5-6.8-16-7.4-39c6.6,4.1,14.5,8,23.8,11.2h0c15.5,60.8,79.2,74.6,108.1,74.6
		C170.3,248.3,109.3,234.6,89.8,180.6z M58.7,144.6c0,4.2,0.2,8.2,0.5,12.1c-8.1-3-14.8-6.4-20.4-9.9c1.7-17.1,7.1-36.9,20.1-56.9
		c26.1-40.4,73.5-52.9,106-48C132,38.4,58.7,69,58.7,144.6z"/>
	<path class="st1" d="M134.1,184c-0.9-3.4-2-8.7-2.5-15.5c70,1.1,105.4-32.1,113.8-53.9C252.2,126.9,229.6,183.2,134.1,184z"/>
	<path class="st1" d="M161.9,7.8c-0.5,0,116.4,21.2,116.4,132.7c0,82.5-64.8,124.3-120.2,130.8c61.2,0,133.9-45.4,133.9-131
		C292,73.3,241.6,9.2,161.9,7.8z"/>
</g>
</svg>
